<mxfile host="app.diagrams.net" modified="2022-04-13T20:48:27.739Z" agent="5.0 (Windows NT 10.0; Win64; x64) AppleWebKit/537.36 (KHTML, like Gecko) Chrome/100.0.4896.88 Safari/537.36" etag="SQzQHTEfEUFAxv5NBWIC" version="17.4.3" type="github">
  <diagram name="Page-1" id="5f0bae14-7c28-e335-631c-24af17079c00">
    <mxGraphModel dx="464" dy="1608" grid="1" gridSize="10" guides="1" tooltips="1" connect="1" arrows="1" fold="1" page="1" pageScale="1" pageWidth="1100" pageHeight="850" background="none" math="0" shadow="0">
      <root>
        <mxCell id="0" />
        <mxCell id="1" parent="0" />
        <mxCell id="4sSf5KZRn_gUV4yKW63o-3" style="edgeStyle=orthogonalEdgeStyle;rounded=0;orthogonalLoop=1;jettySize=auto;html=1;" parent="1" target="4sSf5KZRn_gUV4yKW63o-1" edge="1">
          <mxGeometry relative="1" as="geometry">
            <mxPoint x="1350" y="53" as="sourcePoint" />
          </mxGeometry>
        </mxCell>
        <mxCell id="4sSf5KZRn_gUV4yKW63o-25" value="" style="edgeStyle=orthogonalEdgeStyle;rounded=0;orthogonalLoop=1;jettySize=auto;html=1;exitX=0.558;exitY=1.005;exitDx=0;exitDy=0;exitPerimeter=0;" parent="1" source="4sSf5KZRn_gUV4yKW63o-6" edge="1">
          <mxGeometry relative="1" as="geometry">
            <mxPoint x="1598" y="53" as="targetPoint" />
          </mxGeometry>
        </mxCell>
        <mxCell id="4sSf5KZRn_gUV4yKW63o-42" value="depends on" style="edgeLabel;html=1;align=center;verticalAlign=middle;resizable=0;points=[];" parent="4sSf5KZRn_gUV4yKW63o-25" connectable="0" vertex="1">
          <mxGeometry x="0.1812" y="3" relative="1" as="geometry">
            <mxPoint x="22" y="-3" as="offset" />
          </mxGeometry>
        </mxCell>
        <mxCell id="4sSf5KZRn_gUV4yKW63o-75" style="edgeStyle=orthogonalEdgeStyle;rounded=0;orthogonalLoop=1;jettySize=auto;html=1;entryX=0.002;entryY=0.088;entryDx=0;entryDy=0;entryPerimeter=0;fontSize=10;" parent="1" source="4sSf5KZRn_gUV4yKW63o-6" target="4sSf5KZRn_gUV4yKW63o-65" edge="1">
          <mxGeometry relative="1" as="geometry">
            <Array as="points">
              <mxPoint x="2183" y="-76.66999999999996" />
              <mxPoint x="2183" y="-137.66999999999996" />
            </Array>
          </mxGeometry>
        </mxCell>
        <mxCell id="4sSf5KZRn_gUV4yKW63o-6" value="client-service" style="verticalAlign=top;align=center;spacingTop=8;spacingLeft=2;spacingRight=12;shape=cube;size=10;direction=south;fontStyle=1;html=1;rounded=0;shadow=0;comic=0;labelBackgroundColor=none;strokeWidth=1;fontFamily=Verdana;fontSize=12;fillColor=#eeeeee;strokeColor=#36393d;" parent="1" vertex="1">
          <mxGeometry x="1700" y="-136.67000000000002" width="330" height="340" as="geometry" />
        </mxCell>
        <mxCell id="4sSf5KZRn_gUV4yKW63o-7" style="edgeStyle=orthogonalEdgeStyle;rounded=0;orthogonalLoop=1;jettySize=auto;html=1;dashed=1;dashPattern=1 4;endArrow=open;endFill=0;" parent="1" source="4sSf5KZRn_gUV4yKW63o-9" target="4sSf5KZRn_gUV4yKW63o-13" edge="1">
          <mxGeometry relative="1" as="geometry" />
        </mxCell>
        <mxCell id="4sSf5KZRn_gUV4yKW63o-23" style="edgeStyle=orthogonalEdgeStyle;rounded=0;orthogonalLoop=1;jettySize=auto;html=1;entryX=0;entryY=0;entryDx=140;entryDy=68;entryPerimeter=0;dashed=1;" parent="1" source="4sSf5KZRn_gUV4yKW63o-9" target="4sSf5KZRn_gUV4yKW63o-19" edge="1">
          <mxGeometry relative="1" as="geometry" />
        </mxCell>
        <mxCell id="4sSf5KZRn_gUV4yKW63o-9" value="controller" style="shape=folder;fontStyle=1;spacingTop=10;tabWidth=40;tabHeight=14;tabPosition=left;html=1;fillColor=#f5f5f5;strokeColor=#666666;fontColor=#333333;" parent="1" vertex="1">
          <mxGeometry x="1900" y="-100.00000000000006" width="90" height="50" as="geometry" />
        </mxCell>
        <mxCell id="4sSf5KZRn_gUV4yKW63o-10" style="edgeStyle=orthogonalEdgeStyle;rounded=0;orthogonalLoop=1;jettySize=auto;html=1;dashed=1;dashPattern=1 4;endArrow=open;endFill=0;" parent="1" source="4sSf5KZRn_gUV4yKW63o-13" target="4sSf5KZRn_gUV4yKW63o-15" edge="1">
          <mxGeometry relative="1" as="geometry" />
        </mxCell>
        <mxCell id="4sSf5KZRn_gUV4yKW63o-24" style="edgeStyle=orthogonalEdgeStyle;rounded=0;orthogonalLoop=1;jettySize=auto;html=1;dashed=1;" parent="1" source="4sSf5KZRn_gUV4yKW63o-13" target="4sSf5KZRn_gUV4yKW63o-19" edge="1">
          <mxGeometry relative="1" as="geometry" />
        </mxCell>
        <mxCell id="4sSf5KZRn_gUV4yKW63o-13" value="service" style="shape=folder;fontStyle=1;spacingTop=10;tabWidth=40;tabHeight=14;tabPosition=left;html=1;fillColor=#f5f5f5;strokeColor=#666666;fontColor=#333333;" parent="1" vertex="1">
          <mxGeometry x="1900" y="-30.000000000000057" width="90" height="50" as="geometry" />
        </mxCell>
        <mxCell id="4sSf5KZRn_gUV4yKW63o-14" style="edgeStyle=orthogonalEdgeStyle;rounded=0;orthogonalLoop=1;jettySize=auto;html=1;dashed=1;dashPattern=1 4;endArrow=open;endFill=0;" parent="1" source="4sSf5KZRn_gUV4yKW63o-15" target="4sSf5KZRn_gUV4yKW63o-16" edge="1">
          <mxGeometry relative="1" as="geometry" />
        </mxCell>
        <mxCell id="4sSf5KZRn_gUV4yKW63o-15" value="repository" style="shape=folder;fontStyle=1;spacingTop=10;tabWidth=40;tabHeight=14;tabPosition=left;html=1;fillColor=#f5f5f5;strokeColor=#666666;fontColor=#333333;" parent="1" vertex="1">
          <mxGeometry x="1900" y="49.999999999999886" width="90" height="50" as="geometry" />
        </mxCell>
        <mxCell id="4sSf5KZRn_gUV4yKW63o-16" value="models" style="shape=folder;fontStyle=1;spacingTop=10;tabWidth=40;tabHeight=14;tabPosition=left;html=1;fillColor=#f5f5f5;strokeColor=#666666;fontColor=#333333;" parent="1" vertex="1">
          <mxGeometry x="1900" y="120" width="90" height="50" as="geometry" />
        </mxCell>
        <mxCell id="4sSf5KZRn_gUV4yKW63o-19" value="utilities" style="shape=folder;fontStyle=1;spacingTop=10;tabWidth=40;tabHeight=14;tabPosition=left;html=1;align=center;verticalAlign=top;fillColor=#A6A6A6;strokeColor=#666666;fontColor=#333333;" parent="1" vertex="1">
          <mxGeometry x="1720" y="-99.99999999999994" width="140" height="230" as="geometry" />
        </mxCell>
        <mxCell id="4sSf5KZRn_gUV4yKW63o-20" value="constants" style="shape=folder;fontStyle=1;spacingTop=10;tabWidth=40;tabHeight=14;tabPosition=left;html=1;fillColor=#f5f5f5;strokeColor=#666666;fontColor=#333333;" parent="1" vertex="1">
          <mxGeometry x="1730" y="-60.00000000000006" width="120" height="50" as="geometry" />
        </mxCell>
        <mxCell id="4sSf5KZRn_gUV4yKW63o-21" value="utils" style="shape=folder;fontStyle=1;spacingTop=10;tabWidth=40;tabHeight=14;tabPosition=left;html=1;fillColor=#f5f5f5;strokeColor=#666666;fontColor=#333333;" parent="1" vertex="1">
          <mxGeometry x="1730" y="0.8300000000000409" width="120" height="50" as="geometry" />
        </mxCell>
        <mxCell id="4sSf5KZRn_gUV4yKW63o-22" value="errors" style="shape=folder;fontStyle=1;spacingTop=10;tabWidth=40;tabHeight=14;tabPosition=left;html=1;fillColor=#f5f5f5;strokeColor=#666666;fontColor=#333333;" parent="1" vertex="1">
          <mxGeometry x="1730" y="60" width="120" height="50" as="geometry" />
        </mxCell>
        <mxCell id="4sSf5KZRn_gUV4yKW63o-41" value="depends on" style="edgeStyle=orthogonalEdgeStyle;rounded=0;orthogonalLoop=1;jettySize=auto;html=1;entryX=0;entryY=0;entryDx=0;entryDy=50;entryPerimeter=0;" parent="1" source="4sSf5KZRn_gUV4yKW63o-26" target="tYJBHARpEt8H4JBpE8fO-1" edge="1">
          <mxGeometry relative="1" as="geometry" />
        </mxCell>
        <mxCell id="4sSf5KZRn_gUV4yKW63o-81" style="edgeStyle=orthogonalEdgeStyle;rounded=0;orthogonalLoop=1;jettySize=auto;html=1;entryX=0;entryY=0.5;entryDx=0;entryDy=0;fontSize=10;" parent="1" source="4sSf5KZRn_gUV4yKW63o-26" target="4sSf5KZRn_gUV4yKW63o-79" edge="1">
          <mxGeometry relative="1" as="geometry">
            <Array as="points">
              <mxPoint x="2183" y="-476.66999999999996" />
              <mxPoint x="2183" y="-519.67" />
            </Array>
          </mxGeometry>
        </mxCell>
        <mxCell id="4sSf5KZRn_gUV4yKW63o-26" value="passive-service" style="verticalAlign=top;align=center;spacingTop=8;spacingLeft=2;spacingRight=12;shape=cube;size=10;direction=south;fontStyle=1;html=1;rounded=0;shadow=0;comic=0;labelBackgroundColor=none;strokeWidth=1;fontFamily=Verdana;fontSize=12;fillColor=#e1d5e7;strokeColor=#9673a6;" parent="1" vertex="1">
          <mxGeometry x="1700" y="-506.67" width="330" height="340" as="geometry" />
        </mxCell>
        <mxCell id="4sSf5KZRn_gUV4yKW63o-27" style="edgeStyle=orthogonalEdgeStyle;rounded=0;orthogonalLoop=1;jettySize=auto;html=1;dashed=1;dashPattern=1 4;endArrow=open;endFill=0;" parent="1" source="4sSf5KZRn_gUV4yKW63o-29" target="4sSf5KZRn_gUV4yKW63o-32" edge="1">
          <mxGeometry relative="1" as="geometry" />
        </mxCell>
        <mxCell id="4sSf5KZRn_gUV4yKW63o-28" style="edgeStyle=orthogonalEdgeStyle;rounded=0;orthogonalLoop=1;jettySize=auto;html=1;entryX=0;entryY=0;entryDx=140;entryDy=68;entryPerimeter=0;dashed=1;" parent="1" source="4sSf5KZRn_gUV4yKW63o-29" target="4sSf5KZRn_gUV4yKW63o-36" edge="1">
          <mxGeometry relative="1" as="geometry" />
        </mxCell>
        <mxCell id="4sSf5KZRn_gUV4yKW63o-29" value="controller" style="shape=folder;fontStyle=1;spacingTop=10;tabWidth=40;tabHeight=14;tabPosition=left;html=1;fillColor=#f5f5f5;strokeColor=#666666;fontColor=#333333;" parent="1" vertex="1">
          <mxGeometry x="1900" y="-470.00000000000006" width="90" height="50" as="geometry" />
        </mxCell>
        <mxCell id="4sSf5KZRn_gUV4yKW63o-30" style="edgeStyle=orthogonalEdgeStyle;rounded=0;orthogonalLoop=1;jettySize=auto;html=1;dashed=1;dashPattern=1 4;endArrow=open;endFill=0;" parent="1" source="4sSf5KZRn_gUV4yKW63o-32" target="4sSf5KZRn_gUV4yKW63o-34" edge="1">
          <mxGeometry relative="1" as="geometry" />
        </mxCell>
        <mxCell id="4sSf5KZRn_gUV4yKW63o-31" style="edgeStyle=orthogonalEdgeStyle;rounded=0;orthogonalLoop=1;jettySize=auto;html=1;dashed=1;" parent="1" source="4sSf5KZRn_gUV4yKW63o-32" target="4sSf5KZRn_gUV4yKW63o-36" edge="1">
          <mxGeometry relative="1" as="geometry" />
        </mxCell>
        <mxCell id="4sSf5KZRn_gUV4yKW63o-32" value="service" style="shape=folder;fontStyle=1;spacingTop=10;tabWidth=40;tabHeight=14;tabPosition=left;html=1;fillColor=#f5f5f5;strokeColor=#666666;fontColor=#333333;" parent="1" vertex="1">
          <mxGeometry x="1900" y="-400.00000000000006" width="90" height="50" as="geometry" />
        </mxCell>
        <mxCell id="4sSf5KZRn_gUV4yKW63o-33" style="edgeStyle=orthogonalEdgeStyle;rounded=0;orthogonalLoop=1;jettySize=auto;html=1;dashed=1;dashPattern=1 4;endArrow=open;endFill=0;" parent="1" source="4sSf5KZRn_gUV4yKW63o-34" target="4sSf5KZRn_gUV4yKW63o-35" edge="1">
          <mxGeometry relative="1" as="geometry" />
        </mxCell>
        <mxCell id="4sSf5KZRn_gUV4yKW63o-34" value="repository" style="shape=folder;fontStyle=1;spacingTop=10;tabWidth=40;tabHeight=14;tabPosition=left;html=1;fillColor=#f5f5f5;strokeColor=#666666;fontColor=#333333;" parent="1" vertex="1">
          <mxGeometry x="1900" y="-320.0000000000001" width="90" height="50" as="geometry" />
        </mxCell>
        <mxCell id="4sSf5KZRn_gUV4yKW63o-35" value="models" style="shape=folder;fontStyle=1;spacingTop=10;tabWidth=40;tabHeight=14;tabPosition=left;html=1;fillColor=#f5f5f5;strokeColor=#666666;fontColor=#333333;" parent="1" vertex="1">
          <mxGeometry x="1900" y="-250" width="90" height="50" as="geometry" />
        </mxCell>
        <mxCell id="4sSf5KZRn_gUV4yKW63o-36" value="utilities" style="shape=folder;fontStyle=1;spacingTop=10;tabWidth=40;tabHeight=14;tabPosition=left;html=1;align=center;verticalAlign=top;fillColor=#bac8d3;strokeColor=#23445d;" parent="1" vertex="1">
          <mxGeometry x="1720" y="-469.99999999999994" width="140" height="230" as="geometry" />
        </mxCell>
        <mxCell id="4sSf5KZRn_gUV4yKW63o-37" value="constants" style="shape=folder;fontStyle=1;spacingTop=10;tabWidth=40;tabHeight=14;tabPosition=left;html=1;fillColor=#f5f5f5;strokeColor=#666666;fontColor=#333333;" parent="1" vertex="1">
          <mxGeometry x="1730" y="-430.00000000000006" width="120" height="50" as="geometry" />
        </mxCell>
        <mxCell id="4sSf5KZRn_gUV4yKW63o-38" value="utils" style="shape=folder;fontStyle=1;spacingTop=10;tabWidth=40;tabHeight=14;tabPosition=left;html=1;fillColor=#f5f5f5;strokeColor=#666666;fontColor=#333333;" parent="1" vertex="1">
          <mxGeometry x="1730" y="-369.16999999999996" width="120" height="50" as="geometry" />
        </mxCell>
        <mxCell id="4sSf5KZRn_gUV4yKW63o-39" value="errors" style="shape=folder;fontStyle=1;spacingTop=10;tabWidth=40;tabHeight=14;tabPosition=left;html=1;fillColor=#f5f5f5;strokeColor=#666666;fontColor=#333333;" parent="1" vertex="1">
          <mxGeometry x="1730" y="-310" width="120" height="50" as="geometry" />
        </mxCell>
        <mxCell id="4sSf5KZRn_gUV4yKW63o-57" value="depends on" style="edgeStyle=orthogonalEdgeStyle;rounded=0;orthogonalLoop=1;jettySize=auto;html=1;" parent="1" source="4sSf5KZRn_gUV4yKW63o-43" target="tYJBHARpEt8H4JBpE8fO-1" edge="1">
          <mxGeometry relative="1" as="geometry" />
        </mxCell>
        <mxCell id="4sSf5KZRn_gUV4yKW63o-78" style="edgeStyle=orthogonalEdgeStyle;rounded=0;orthogonalLoop=1;jettySize=auto;html=1;entryX=0;entryY=0.25;entryDx=0;entryDy=0;fontSize=10;" parent="1" source="4sSf5KZRn_gUV4yKW63o-43" target="4sSf5KZRn_gUV4yKW63o-77" edge="1">
          <mxGeometry relative="1" as="geometry">
            <Array as="points">
              <mxPoint x="2200" y="483.33000000000004" />
              <mxPoint x="2200" y="517.33" />
            </Array>
          </mxGeometry>
        </mxCell>
        <mxCell id="4sSf5KZRn_gUV4yKW63o-43" value="active-service" style="verticalAlign=top;align=center;spacingTop=8;spacingLeft=2;spacingRight=12;shape=cube;size=10;direction=south;fontStyle=1;html=1;rounded=0;shadow=0;comic=0;labelBackgroundColor=none;strokeWidth=1;fontFamily=Verdana;fontSize=12;fillColor=#ffe6cc;strokeColor=#d79b00;" parent="1" vertex="1">
          <mxGeometry x="1700" y="233.33000000000004" width="330" height="340" as="geometry" />
        </mxCell>
        <mxCell id="4sSf5KZRn_gUV4yKW63o-44" style="edgeStyle=orthogonalEdgeStyle;rounded=0;orthogonalLoop=1;jettySize=auto;html=1;dashed=1;dashPattern=1 4;endArrow=open;endFill=0;" parent="1" source="4sSf5KZRn_gUV4yKW63o-46" target="4sSf5KZRn_gUV4yKW63o-49" edge="1">
          <mxGeometry relative="1" as="geometry" />
        </mxCell>
        <mxCell id="4sSf5KZRn_gUV4yKW63o-45" style="edgeStyle=orthogonalEdgeStyle;rounded=0;orthogonalLoop=1;jettySize=auto;html=1;entryX=0;entryY=0;entryDx=140;entryDy=68;entryPerimeter=0;dashed=1;" parent="1" source="4sSf5KZRn_gUV4yKW63o-46" target="4sSf5KZRn_gUV4yKW63o-53" edge="1">
          <mxGeometry relative="1" as="geometry" />
        </mxCell>
        <mxCell id="4sSf5KZRn_gUV4yKW63o-46" value="controller" style="shape=folder;fontStyle=1;spacingTop=10;tabWidth=40;tabHeight=14;tabPosition=left;html=1;fillColor=#f5f5f5;strokeColor=#666666;fontColor=#333333;" parent="1" vertex="1">
          <mxGeometry x="1900" y="269.9999999999999" width="90" height="50" as="geometry" />
        </mxCell>
        <mxCell id="4sSf5KZRn_gUV4yKW63o-47" style="edgeStyle=orthogonalEdgeStyle;rounded=0;orthogonalLoop=1;jettySize=auto;html=1;dashed=1;dashPattern=1 4;endArrow=open;endFill=0;" parent="1" source="4sSf5KZRn_gUV4yKW63o-49" target="4sSf5KZRn_gUV4yKW63o-51" edge="1">
          <mxGeometry relative="1" as="geometry" />
        </mxCell>
        <mxCell id="4sSf5KZRn_gUV4yKW63o-48" style="edgeStyle=orthogonalEdgeStyle;rounded=0;orthogonalLoop=1;jettySize=auto;html=1;dashed=1;" parent="1" source="4sSf5KZRn_gUV4yKW63o-49" target="4sSf5KZRn_gUV4yKW63o-53" edge="1">
          <mxGeometry relative="1" as="geometry" />
        </mxCell>
        <mxCell id="4sSf5KZRn_gUV4yKW63o-49" value="service" style="shape=folder;fontStyle=1;spacingTop=10;tabWidth=40;tabHeight=14;tabPosition=left;html=1;fillColor=#f5f5f5;strokeColor=#666666;fontColor=#333333;" parent="1" vertex="1">
          <mxGeometry x="1900" y="339.9999999999999" width="90" height="50" as="geometry" />
        </mxCell>
        <mxCell id="4sSf5KZRn_gUV4yKW63o-50" style="edgeStyle=orthogonalEdgeStyle;rounded=0;orthogonalLoop=1;jettySize=auto;html=1;dashed=1;dashPattern=1 4;endArrow=open;endFill=0;" parent="1" source="4sSf5KZRn_gUV4yKW63o-51" target="4sSf5KZRn_gUV4yKW63o-52" edge="1">
          <mxGeometry relative="1" as="geometry" />
        </mxCell>
        <mxCell id="4sSf5KZRn_gUV4yKW63o-51" value="repository" style="shape=folder;fontStyle=1;spacingTop=10;tabWidth=40;tabHeight=14;tabPosition=left;html=1;fillColor=#f5f5f5;strokeColor=#666666;fontColor=#333333;" parent="1" vertex="1">
          <mxGeometry x="1900" y="419.9999999999999" width="90" height="50" as="geometry" />
        </mxCell>
        <mxCell id="4sSf5KZRn_gUV4yKW63o-52" value="models" style="shape=folder;fontStyle=1;spacingTop=10;tabWidth=40;tabHeight=14;tabPosition=left;html=1;fillColor=#f5f5f5;strokeColor=#666666;fontColor=#333333;" parent="1" vertex="1">
          <mxGeometry x="1900" y="490" width="90" height="50" as="geometry" />
        </mxCell>
        <mxCell id="4sSf5KZRn_gUV4yKW63o-53" value="utilities" style="shape=folder;fontStyle=1;spacingTop=10;tabWidth=40;tabHeight=14;tabPosition=left;html=1;align=center;verticalAlign=top;fillColor=#FFB570;strokeColor=#23445d;" parent="1" vertex="1">
          <mxGeometry x="1720" y="270.0000000000001" width="140" height="230" as="geometry" />
        </mxCell>
        <mxCell id="4sSf5KZRn_gUV4yKW63o-54" value="constants" style="shape=folder;fontStyle=1;spacingTop=10;tabWidth=40;tabHeight=14;tabPosition=left;html=1;fillColor=#f5f5f5;strokeColor=#666666;fontColor=#333333;" parent="1" vertex="1">
          <mxGeometry x="1730" y="309.9999999999999" width="120" height="50" as="geometry" />
        </mxCell>
        <mxCell id="4sSf5KZRn_gUV4yKW63o-55" value="utils" style="shape=folder;fontStyle=1;spacingTop=10;tabWidth=40;tabHeight=14;tabPosition=left;html=1;fillColor=#f5f5f5;strokeColor=#666666;fontColor=#333333;" parent="1" vertex="1">
          <mxGeometry x="1730" y="370.83000000000004" width="120" height="50" as="geometry" />
        </mxCell>
        <mxCell id="4sSf5KZRn_gUV4yKW63o-56" value="errors" style="shape=folder;fontStyle=1;spacingTop=10;tabWidth=40;tabHeight=14;tabPosition=left;html=1;fillColor=#f5f5f5;strokeColor=#666666;fontColor=#333333;" parent="1" vertex="1">
          <mxGeometry x="1730" y="430" width="120" height="50" as="geometry" />
        </mxCell>
        <mxCell id="4sSf5KZRn_gUV4yKW63o-58" value="localhost:8002" style="edgeStyle=orthogonalEdgeStyle;rounded=0;orthogonalLoop=1;jettySize=auto;html=1;dashed=1;endArrow=open;endFill=0;" parent="1" edge="1">
          <mxGeometry relative="1" as="geometry">
            <mxPoint x="2030" y="-347.5" as="sourcePoint" />
            <mxPoint x="2195" y="-347.4999999999999" as="targetPoint" />
          </mxGeometry>
        </mxCell>
        <mxCell id="4sSf5KZRn_gUV4yKW63o-60" value="localhost:8001" style="edgeStyle=orthogonalEdgeStyle;rounded=0;orthogonalLoop=1;jettySize=auto;html=1;dashed=1;endArrow=open;endFill=0;" parent="1" edge="1">
          <mxGeometry relative="1" as="geometry">
            <mxPoint x="2030" y="33.33000000000004" as="sourcePoint" />
            <mxPoint x="2195" y="33.33000000000004" as="targetPoint" />
          </mxGeometry>
        </mxCell>
        <mxCell id="4sSf5KZRn_gUV4yKW63o-62" value="localhost:8003" style="edgeStyle=orthogonalEdgeStyle;rounded=0;orthogonalLoop=1;jettySize=auto;html=1;dashed=1;endArrow=open;endFill=0;" parent="1" edge="1">
          <mxGeometry relative="1" as="geometry">
            <mxPoint x="2030" y="385.0000000000001" as="sourcePoint" />
            <mxPoint x="2195" y="385.0000000000001" as="targetPoint" />
          </mxGeometry>
        </mxCell>
        <mxCell id="4sSf5KZRn_gUV4yKW63o-64" value="Client Collection" style="swimlane;childLayout=stackLayout;horizontal=1;startSize=30;horizontalStack=0;rounded=0;fontSize=14;fontStyle=1;strokeWidth=1;resizeParent=0;resizeLast=1;shadow=0;dashed=0;align=center;fillColor=#E6E6E6;swimlaneLine=0;glass=0;sketch=0;fillStyle=auto;swimlaneFillColor=default;" parent="1" vertex="1">
          <mxGeometry x="2336" y="-203.33999999999997" width="244" height="436.67" as="geometry">
            <mxRectangle x="2380" y="323.3299999999999" width="140" height="30" as="alternateBounds" />
          </mxGeometry>
        </mxCell>
        <mxCell id="4sSf5KZRn_gUV4yKW63o-65" value="{&#xa;    &quot;id&quot;: &quot;String&quot;,&#xa;    &quot;type&quot;: &quot;String&quot;,&#xa;    &quot;status&quot;: &quot;String&quot;,&#xa;    &#xa;&#xa;&#xa;&#xa;&#xa;&#xa;&#xa;&#xa;&#xa;&#xa;    &quot;businessDetails&quot;: {&#xa;        &quot;name&quot;: &quot;String&quot;,&#xa;        &quot;ruc&quot;: &quot;String&quot;,&#xa;        &#xa;&#xa;&#xa;&#xa;&#xa;&#xa;&#xa;&#xa;&#xa;        &#xa;        &#xa;    }&#xa;}" style="align=left;strokeColor=none;fillColor=none;spacingLeft=4;fontSize=11;verticalAlign=top;resizable=0;rotatable=0;part=1;" parent="4sSf5KZRn_gUV4yKW63o-64" vertex="1">
          <mxGeometry y="30" width="244" height="406.67" as="geometry" />
        </mxCell>
        <mxCell id="4sSf5KZRn_gUV4yKW63o-67" value="personDetails" style="shape=note;size=20;whiteSpace=wrap;html=1;labelBackgroundColor=none;fillColor=none;verticalAlign=top;align=left;fontStyle=1;fontSize=10;" parent="1" vertex="1">
          <mxGeometry x="2356" y="-112.99999999999994" width="190" height="120" as="geometry" />
        </mxCell>
        <mxCell id="4sSf5KZRn_gUV4yKW63o-68" value="&lt;font style=&quot;font-size: 10px&quot;&gt;&lt;span&gt;{&lt;/span&gt;&lt;br style=&quot;padding: 0px ; margin: 0px&quot;&gt;&lt;span&gt;&amp;nbsp; &amp;nbsp;&quot;name&quot;: &quot;String&quot;,&lt;/span&gt;&lt;br style=&quot;padding: 0px ; margin: 0px&quot;&gt;&lt;span&gt;&amp;nbsp; &amp;nbsp;&quot;lastname&quot;: &quot;String&quot;,&lt;/span&gt;&lt;br style=&quot;padding: 0px ; margin: 0px&quot;&gt;&lt;span&gt;&amp;nbsp; &amp;nbsp;&quot;identityNumber&quot;: &quot;String&quot;,&amp;nbsp; &amp;nbsp; &amp;nbsp; &amp;nbsp;&amp;nbsp;&lt;/span&gt;&lt;br style=&quot;padding: 0px ; margin: 0px&quot;&gt;&lt;span&gt;&amp;nbsp; &amp;nbsp;&quot;phoneNumber&quot;: &quot;String&quot;&amp;nbsp; &amp;nbsp; &amp;nbsp; &amp;nbsp;&lt;/span&gt;&lt;br style=&quot;padding: 0px ; margin: 0px&quot;&gt;&lt;span&gt;&amp;nbsp; &amp;nbsp;&quot;birthdate&quot;: &quot;Date&quot;&lt;/span&gt;&lt;br style=&quot;padding: 0px ; margin: 0px&quot;&gt;&lt;span&gt;}&lt;/span&gt;&lt;/font&gt;" style="whiteSpace=wrap;html=1;align=left;labelBackgroundColor=none;fontSize=10;fillColor=none;" parent="1" vertex="1">
          <mxGeometry x="2363" y="-91.32999999999993" width="175" height="88.33" as="geometry" />
        </mxCell>
        <mxCell id="4sSf5KZRn_gUV4yKW63o-72" value="representatives" style="shape=note;size=20;whiteSpace=wrap;html=1;labelBackgroundColor=none;fillColor=none;verticalAlign=top;align=left;fontStyle=1;fontSize=10;" parent="1" vertex="1">
          <mxGeometry x="2380" y="60" width="186" height="129.17" as="geometry" />
        </mxCell>
        <mxCell id="4sSf5KZRn_gUV4yKW63o-73" value="&lt;font style=&quot;font-size: 10px&quot;&gt;[&lt;br style=&quot;padding: 0px ; margin: 0px&quot;&gt;&lt;span&gt;&amp;nbsp; &amp;nbsp;&lt;/span&gt;&lt;span&gt;&quot;name&quot;: &quot;String&quot;,&lt;/span&gt;&lt;br style=&quot;padding: 0px ; margin: 0px&quot;&gt;&lt;span&gt;&amp;nbsp; &amp;nbsp;&quot;lastname&quot;: &quot;String&quot;,&lt;/span&gt;&lt;br style=&quot;padding: 0px ; margin: 0px&quot;&gt;&lt;span&gt;&amp;nbsp; &amp;nbsp;&quot;identityNumber&quot;: &quot;String&quot;,&lt;/span&gt;&lt;br style=&quot;padding: 0px ; margin: 0px&quot;&gt;&lt;span&gt;&amp;nbsp; &amp;nbsp;&quot;email&quot;: &quot;String&quot;,&lt;/span&gt;&lt;br style=&quot;padding: 0px ; margin: 0px&quot;&gt;&lt;span&gt;&amp;nbsp; &amp;nbsp;&quot;phoneNumber&quot;: &quot;String&quot;,&amp;nbsp; &amp;nbsp; &amp;nbsp; &amp;nbsp; &amp;nbsp; &amp;nbsp; &amp;nbsp; &amp;nbsp; &amp;nbsp; &amp;nbsp; &amp;nbsp;&lt;/span&gt;&lt;span&gt;&quot;birthdate&quot;: &quot;Date&quot;&lt;/span&gt;&lt;br style=&quot;padding: 0px ; margin: 0px&quot;&gt;]&lt;br&gt;&lt;/font&gt;" style="whiteSpace=wrap;html=1;align=left;labelBackgroundColor=none;fontSize=10;fillColor=none;" parent="1" vertex="1">
          <mxGeometry x="2383.5" y="82.66999999999996" width="175" height="96.5" as="geometry" />
        </mxCell>
        <mxCell id="4sSf5KZRn_gUV4yKW63o-76" value="Accounts Collection" style="swimlane;childLayout=stackLayout;horizontal=1;startSize=30;horizontalStack=0;rounded=0;fontSize=14;fontStyle=1;strokeWidth=1;resizeParent=0;resizeLast=1;shadow=0;dashed=0;align=center;sketch=0;glass=0;fillColor=#E6E6E6;gradientColor=none;swimlaneFillColor=default;swimlaneLine=0;" parent="1" vertex="1">
          <mxGeometry x="2336" y="308.32000000000005" width="270" height="345.01" as="geometry" />
        </mxCell>
        <mxCell id="4sSf5KZRn_gUV4yKW63o-77" value="{&#xa;    &quot;id&quot;: &quot;String&quot;,&#xa;    &quot;status&quot;: &quot;String&quot;,&#xa;    &quot;customer&quot;: {&#xa;        &quot;id&quot;: &quot;String&quot;,&#xa;        &quot;type&quot;: &quot;String&quot;,&#xa;        &quot;status&quot;: &quot;String&quot;&#xa;    },&#xa;    &quot;accountType&quot;: {&#xa;        &quot;id&quot;: &quot;String&quot;,&#xa;        &quot;description&quot;: &quot;String&quot;,&#xa;        &quot;commission&quot;: Double,&#xa;        &quot;maximumNumberOfOperations&quot;: Integer,&#xa;        &quot;allowedDayForOperations&quot;: Integer&#xa;    },&#xa;    &quot;accountNumber&quot;: &quot;String&quot;,&#xa;    &quot;issueDate&quot;: &quot;Date&quot;,&#xa;    &quot;dueDate&quot;: &quot;Date&quot;,&#xa;    &quot;currentBalance&quot;: Double,&#xa;    &quot;doneOperationsInMonth&quot;: Integer,&#xa;&#xa;}" style="align=left;strokeColor=none;fillColor=none;spacingLeft=4;fontSize=12;verticalAlign=top;resizable=0;rotatable=0;part=1;" parent="4sSf5KZRn_gUV4yKW63o-76" vertex="1">
          <mxGeometry y="30" width="270" height="315.01" as="geometry" />
        </mxCell>
        <mxCell id="4sSf5KZRn_gUV4yKW63o-79" value="Credit Collection" style="swimlane;childLayout=stackLayout;horizontal=1;startSize=30;horizontalStack=0;rounded=0;fontSize=14;fontStyle=1;strokeWidth=1;resizeParent=0;resizeLast=1;shadow=0;dashed=0;align=center;fillColor=#E6E6E6;sketch=0;swimlaneFillColor=default;swimlaneLine=0;" parent="1" vertex="1">
          <mxGeometry x="2336" y="-770" width="250" height="500" as="geometry" />
        </mxCell>
        <mxCell id="4sSf5KZRn_gUV4yKW63o-80" value="{&#xa;    &quot;id&quot;: &quot;String&quot;,&#xa;    &quot;status&quot;: &quot;String&quot;,&#xa;    &quot;customer&quot;: {&#xa;        &quot;id&quot;: &quot;String&quot;,&#xa;        &quot;type&quot;: &quot;String&quot;,&#xa;        &quot;status&quot;: &quot;String&quot;&#xa;    },&#xa;    &quot;fullGrantedAmount&quot;: Double,&#xa;    &quot;availableAmount&quot;: Double,&#xa;    &quot;creditCardNumber&quot;: &quot;String&quot;,&#xa;    &quot;issueDate&quot;: &quot;Date&quot;,&#xa;    &quot;dueDate&quot;: &quot;Date&quot;,&#xa;    &quot;operations&quot;: [&#xa;        {&#xa;            &quot;operationNumber&quot;: &quot;String&quot;,&#xa;     &quot;time&quot;: &quot;Date&quot;,&#xa;            &quot;type&quot;: &quot;String&quot;,&#xa;            &quot;amount&quot;: Double,&#xa;     &quot;billingOrder&quot;: {&#xa;  &quot;id&quot;: &quot;String&quot;,&#xa;                &quot;calculatedAmount&quot;: Double,&#xa;                &quot;cycle&quot;: &quot;String&quot;,&#xa;                &quot;status&quot;: &quot;String&quot;&#xa;            }&#xa;        }&#xa;    ],&#xa;    &quot;billingDetails&quot;: {&#xa;        &quot;interestPercentage&quot;: Double,&#xa;        &quot;closingDay&quot;: Integer&#xa;    }&#xa;}" style="align=left;strokeColor=none;fillColor=none;spacingLeft=4;fontSize=12;verticalAlign=top;resizable=0;rotatable=0;part=1;" parent="4sSf5KZRn_gUV4yKW63o-79" vertex="1">
          <mxGeometry y="30" width="250" height="470" as="geometry" />
        </mxCell>
        <mxCell id="4sSf5KZRn_gUV4yKW63o-82" value="" style="html=1;verticalLabelPosition=bottom;align=center;labelBackgroundColor=#ffffff;verticalAlign=top;strokeWidth=2;strokeColor=#001DBC;shadow=0;dashed=0;shape=mxgraph.ios7.icons.cloud;rounded=0;fontSize=10;fillColor=#4F9AEF;fontColor=#ffffff;" parent="1" vertex="1">
          <mxGeometry x="2200" y="19.99000000000001" width="42.5" height="26.67" as="geometry" />
        </mxCell>
        <mxCell id="4sSf5KZRn_gUV4yKW63o-83" value="" style="html=1;verticalLabelPosition=bottom;align=center;labelBackgroundColor=#ffffff;verticalAlign=top;strokeWidth=2;strokeColor=#001DBC;shadow=0;dashed=0;shape=mxgraph.ios7.icons.cloud;rounded=0;fontSize=10;fillColor=#4F9AEF;fontColor=#ffffff;" parent="1" vertex="1">
          <mxGeometry x="2200" y="-368.33" width="42.5" height="26.67" as="geometry" />
        </mxCell>
        <mxCell id="4sSf5KZRn_gUV4yKW63o-84" value="" style="html=1;verticalLabelPosition=bottom;align=center;labelBackgroundColor=#ffffff;verticalAlign=top;strokeWidth=2;strokeColor=#001DBC;shadow=0;dashed=0;shape=mxgraph.ios7.icons.cloud;rounded=0;fontSize=10;fillColor=#4F9AEF;fontColor=#ffffff;" parent="1" vertex="1">
          <mxGeometry x="2200" y="363.33000000000004" width="42.5" height="26.67" as="geometry" />
        </mxCell>
        <mxCell id="4sSf5KZRn_gUV4yKW63o-85" value="proyecto semana 2" style="swimlane;rounded=0;labelBackgroundColor=none;fontSize=10;strokeWidth=1;fillColor=#647687;strokeColor=#314354;fontColor=#ffffff;" parent="1" vertex="1">
          <mxGeometry x="1170" y="-850" width="1510" height="1540" as="geometry" />
        </mxCell>
        <mxCell id="tYJBHARpEt8H4JBpE8fO-1" value="API-GATEWAY" style="verticalAlign=top;align=center;spacingTop=8;spacingLeft=2;spacingRight=12;shape=cube;size=10;direction=south;fontStyle=1;html=1;rounded=0;shadow=0;comic=0;labelBackgroundColor=none;strokeWidth=1;fontFamily=Verdana;fontSize=12;fillColor=#eeeeee;strokeColor=#36393d;" vertex="1" parent="4sSf5KZRn_gUV4yKW63o-85">
          <mxGeometry x="320" y="858.33" width="110" height="90" as="geometry" />
        </mxCell>
        <mxCell id="4sSf5KZRn_gUV4yKW63o-2" value="config-service" style="verticalAlign=middle;align=center;spacingTop=8;spacingLeft=2;spacingRight=12;shape=cube;size=10;direction=south;fontStyle=1;html=1;rounded=0;shadow=0;comic=0;labelBackgroundColor=none;strokeWidth=1;fontFamily=Verdana;fontSize=12;fillColor=#d5e8d4;strokeColor=#82b366;horizontal=1;" parent="4sSf5KZRn_gUV4yKW63o-85" vertex="1">
          <mxGeometry x="160" y="878.33" width="120" height="50" as="geometry" />
        </mxCell>
        <mxCell id="4sSf5KZRn_gUV4yKW63o-1" value="config-data" style="shape=image;verticalLabelPosition=bottom;labelBackgroundColor=default;verticalAlign=top;aspect=fixed;imageAspect=0;image=https://is5-ssl.mzstatic.com/image/thumb/Purple126/v4/15/8d/1a/158d1a66-7de5-38b8-7d5d-9ed33bbebca1/AppIcon-0-1x_U007emarketing-0-7-0-85-220.png/1200x630wa.png;clipPath=inset(18.35% 33.33% 18.35% 33.33%);" parent="4sSf5KZRn_gUV4yKW63o-85" vertex="1">
          <mxGeometry x="30" y="863.33" width="80" height="80" as="geometry" />
        </mxCell>
        <mxCell id="tYJBHARpEt8H4JBpE8fO-12" style="edgeStyle=orthogonalEdgeStyle;rounded=0;orthogonalLoop=1;jettySize=auto;html=1;exitX=0;exitY=0;exitDx=50;exitDy=110;exitPerimeter=0;" edge="1" parent="1" source="tYJBHARpEt8H4JBpE8fO-1">
          <mxGeometry relative="1" as="geometry">
            <mxPoint x="1440" y="53" as="targetPoint" />
          </mxGeometry>
        </mxCell>
      </root>
    </mxGraphModel>
  </diagram>
</mxfile>
